<?xml version="1.0" encoding="utf-8"?>
<!-- Generator: Adobe Illustrator 25.3.1, SVG Export Plug-In . SVG Version: 6.00 Build 0)  -->
<svg version="1.1" id="Calque_1" xmlns="http://www.w3.org/2000/svg" xmlns:xlink="http://www.w3.org/1999/xlink" x="0px" y="0px"
	 viewBox="0 0 318.4 37.3" style="enable-background:new 0 0 318.4 37.3;" xml:space="preserve">
<g>
	<path d="M7.5,25.7V12.4h5.1v2c1.9-1,3.7-2.2,5.9-2.2c3.2,0,4.8,1,4.8,3.4v10.1H18v-9.8c0-0.9-0.5-1.5-1.9-1.5
		c-1.1,0-2.3,0.6-3.4,1.2v10H7.5z"/>
	<path d="M114.8,17.2c0-3.5,3.1-5.1,8.3-5.1c5.3,0,8.3,1.5,8.3,5.1v3.7c0,3.5-3.1,5-8.3,5c-5.2,0-8.3-1.5-8.3-5V17.2z M120.1,22.2
		c0,1,1.2,2,3.1,2c1.8,0,3.1-1,3.1-2v-6.4c0-1-1.3-2.1-3.1-2.1c-1.8,0-3.1,1.1-3.1,2.1V22.2z"/>
	<path d="M195.3,25.7V24h-0.1c-0.9,0.8-3.3,2-5.6,2c-4.1,0-5.8-1.9-5.8-5.3v-3.2c0-3.4,1.7-5.3,5.8-5.3c1.4,0,2.8,0.5,5.2,1.6V8.1
		h5.3v17.7H195.3z M194.9,15.4c-1-0.7-2-1-3.2-1c-1.4,0-2.6,0.5-2.6,3.2v2.8c0,2.7,1.2,3.2,2.6,3.2c1.2,0,2.1-0.3,3.2-1V15.4z"/>
	<path d="M250,14.9c-0.4-0.1-1.2-0.2-1.6-0.2c-0.6,0-1.1,0.2-1.8,0.3c0.3,0.9,0.7,1.5,0.7,2.4c0,3.3-2.4,5.2-7.6,5.2
		c-0.7,0-1.4,0-2.2-0.2c-0.3,0.2-0.9,0.5-0.9,0.8c0,1.7,13.2-0.9,13.2,3.9c0,2.3-4,3.4-10.1,3.4c-5.6,0-8.6-0.9-8.6-2.4
		c0-1,1.9-1.6,3.1-2.1c-1.2-0.4-2.1-1-2.1-1.9c0-1.1,1.9-1.8,3.1-2.2c-2.5-1-3.4-2.4-3.4-4.6c0-2.9,1.9-5.1,7.7-5
		c2.9,0,4.8,0.8,6.2,1.7c1.3-1,2.4-1.7,4.3-1.7V14.9z M242.3,16.1c-0.1-1.6-1-2.5-2.8-2.5c-1.9,0-2.7,0.9-2.7,2.8c0,0.1,0,1.6,0,1.7
		c0,1.7,0.9,2.5,2.5,2.5c2.2,0,3-0.5,3-2.8C242.3,17.7,242.3,16.2,242.3,16.1z M237.1,26.3c-0.5,0.3-1.1,0.6-1.1,1.1
		c0,0.7,1.7,1,4.8,1c2.5,0,4-0.4,4-1c0-0.4-0.3-0.6-1.9-0.7L237.1,26.3z"/>
	<path d="M268.8,12.4v13.3h-5.1v-1.6c-1.9,1-3.7,1.9-5.9,1.9c-3.2,0-4.9-1-4.9-3.4V12.4h5.3v9.8c0,0.9,0.5,1.5,1.9,1.5
		c1.1,0,2.3-0.6,3.4-1.2V12.4H268.8z"/>
	<path d="M278.3,19.8v1.7c0,1.3,1.3,1.9,3.1,1.9c2.2,0,3.1-0.8,3.1-1.9h5.2c-0.2,2.8-3,4.4-8.3,4.4c-5,0-8.3-1.8-8.3-4.7v-4.3
		c0-2.9,3.3-4.7,8.3-4.7c4.9,0,8.3,1.8,8.3,4.5v3.1H278.3z M284.4,17.8v-2.3c0-1.2-1-1.9-3.1-1.9c-2.1,0-3.1,0.7-3.1,1.9v2.3H284.4z
		"/>
	<path d="M293.5,12.4h15.1v2.7l-10.5,8.7h10.5v1.9h-15.9v-2.6l10.3-8.7h-9.5V12.4z"/>
	<path d="M48.3,25.8V12.4h5.1v1.8c1.9-1,3.7-2.1,5.9-2.1c3.2,0,3.7,1,4.1,2.6L58.9,16c0-0.9-0.5-1.5-1.9-1.5c-1.1,0-2.3,0.6-3.4,1.2
		v10.1H48.3z"/>
	<path d="M27.4,16.3c0.4-3,4.2-4.1,8.4-4.1c5.6,0,7.7,1.7,7.7,4v8.4c0,0.4,0.1,0.7,0.3,1.1h-5.2c-0.1-0.4-0.2-0.8-0.4-1.3
		c-1.5,0.9-3.6,1.6-6.2,1.6c-3.2,0-5.2-1-5.2-3.2c0-3.1,5-4.4,11.6-5.5v-1c0,0,0-1.1,0-1.2c-0.1-1.1-1.3-1.5-2.7-1.5
		c-1.5,0-2.7,0.6-2.9,1.5c0,0.1,0,1.1,0,1.2H27.4z M38.3,18.7c-3.1,0.6-6.3,2.1-6.3,3.5c0,0.9,0.9,1.4,2.3,1.4c1.6,0,2.7-0.2,4-1
		V18.7z"/>
	<path d="M76.7,16.9v-0.6c0-1-0.4-2.6-3.1-2.7c-2.8,0-3.1,1.6-3.1,2.7V22c0,1,1.2,2.2,3.1,2.2c1.8,0,3.1-1.6,3.1-2.6v-0.8h5.2v0
		c0,3.5-3.1,5.1-8.3,5.1c-5.2,0-8.3-1.5-8.3-5.1v-3.7c0-3.5,3.1-5.1,8.3-5.1c5.1,0,8.2,1.5,8.3,4.9H76.7z"/>
	<path d="M91.9,12.5v13.3h-5.3V12.5H91.9z M86.6,9.3v-2h5.3v2H86.6z"/>
	<path d="M163.5,17.2c0-3.5,3.1-5.1,8.3-5.1c5.2,0,8.3,1.5,8.3,5.1v3.7c0,3.5-3.1,5.1-8.3,5.1c-5.2,0-8.3-1.5-8.3-5.1V17.2z
		 M168.8,22.2c0,1,1.2,2,3.1,2c1.8,0,3.1-1,3.1-2v-6.4c0-1-1.2-2.1-3.1-2.1c-1.8,0-3.1,1.1-3.1,2.1V22.2z"/>
	<path d="M146.8,25.8V12.5h5.1v1.8c1.9-1,3.7-2.1,5.9-2.1c3.2,0,3.7,1,4.1,2.6l-4.5,1.2c0-0.9-0.5-1.5-1.9-1.5
		c-1.1,0-2.3,0.6-3.4,1.2v10.1H146.8z"/>
	<path d="M204.7,25.8V12.5h5.1v1.8c1.9-1,3.7-2.1,5.8-2.1c3.2,0,3.7,1,4.1,2.6l-4.5,1.2c0-0.9-0.5-1.5-1.9-1.5
		c-1.1,0-2.3,0.6-3.4,1.2v10.1H204.7z"/>
	<path d="M227.4,12.4v13.3h-5.2V12.4H227.4z M222.1,9.4v-2h5.2v2H222.1z"/>
	<path d="M96.5,16.1c-0.2-2.6,3.1-4.1,7.5-4.1c2.7,0,4.9,0.5,7.6,3.7l-4.4,0.6c-0.5-1.2-1.2-2.5-3.3-2.5c-1.4,0-2.1,0.2-2.8,1
		c0,0-0.1,0.2-0.1,0.4c0,0.2,0,0.5,0,0.5 M101.1,15.2c0,0.3,0,0.6,0,0.6c0,2.1,10.6,2.1,10.6,6.1c0,2.6-3.2,4-7.5,4
		c-3.2,0-6-0.5-8.5-3.8l4.7-0.8c0.5,1.2,1.8,2.8,3.8,2.8c1.4,0,2.5-0.4,2.6-1c0,0,0.1-0.2,0.1-0.4c0-0.2,0-0.5,0-0.5
		c0-2.5-10.4-1.9-10.4-6.4"/>
</g>
</svg>
